<svg width="9" height="6" viewBox="0 0 9 6" fill="none" xmlns="http://www.w3.org/2000/svg">
<path d="M7.97421 0.166387C7.92191 0.113664 7.8597 0.0718174 7.79116 0.04326C7.72261 0.0147026 7.64909 0 7.57483 0C7.50058 0 7.42705 0.0147026 7.35851 0.04326C7.28996 0.0718174 7.22775 0.113664 7.17546 0.166387L2.98483 4.36264L1.22421 2.59639C1.16991 2.54394 1.10582 2.5027 1.03559 2.47502C0.965359 2.44735 0.890364 2.43377 0.814888 2.43508C0.739411 2.43638 0.664931 2.45254 0.595699 2.48263C0.526468 2.51272 0.46384 2.55616 0.411394 2.61045C0.358947 2.66474 0.317708 2.72883 0.290031 2.79907C0.262354 2.8693 0.24878 2.94429 0.250086 3.01977C0.251392 3.09524 0.267551 3.16972 0.297641 3.23896C0.327731 3.30819 0.371163 3.37082 0.425456 3.42326L2.58546 5.58326C2.63775 5.63598 2.69996 5.67783 2.76851 5.70639C2.83705 5.73495 2.91058 5.74965 2.98483 5.74965C3.05909 5.74965 3.13261 5.73495 3.20116 5.70639C3.2697 5.67783 3.33192 5.63598 3.38421 5.58326L7.97421 0.993262C8.0313 0.940588 8.07687 0.876659 8.10804 0.805503C8.1392 0.734347 8.15529 0.657506 8.15529 0.579824C8.15529 0.502142 8.1392 0.425302 8.10804 0.354145C8.07687 0.28299 8.0313 0.21906 7.97421 0.166387Z" fill="white"/>
</svg>
