<svg width="24" height="24" viewBox="0 0 24 24" fill="none" xmlns="http://www.w3.org/2000/svg">
<rect width="24" height="24" rx="4" fill="#00A6BD"/>
<path d="M17.2989 8.22185C17.2292 8.15155 17.1463 8.09576 17.0549 8.05768C16.9635 8.0196 16.8655 8 16.7664 8C16.6674 8 16.5694 8.0196 16.478 8.05768C16.3866 8.09576 16.3037 8.15155 16.2339 8.22185L10.6464 13.8168L8.29894 11.4618C8.22655 11.3919 8.14109 11.3369 8.04745 11.3C7.95381 11.2631 7.85382 11.245 7.75318 11.2468C7.65255 11.2485 7.55324 11.2701 7.46093 11.3102C7.36862 11.3503 7.28512 11.4082 7.21519 11.4806C7.14526 11.553 7.09028 11.6384 7.05337 11.7321C7.01647 11.8257 6.99837 11.9257 7.00011 12.0264C7.00186 12.127 7.0234 12.2263 7.06352 12.3186C7.10364 12.4109 7.16155 12.4944 7.23394 12.5643L10.1139 15.4443C10.1837 15.5146 10.2666 15.5704 10.358 15.6085C10.4494 15.6466 10.5474 15.6662 10.6464 15.6662C10.7455 15.6662 10.8435 15.6466 10.9349 15.6085C11.0263 15.5704 11.1092 15.5146 11.1789 15.4443L17.2989 9.32435C17.3751 9.25412 17.4358 9.16888 17.4774 9.074C17.5189 8.97913 17.5404 8.87668 17.5404 8.7731C17.5404 8.66952 17.5189 8.56707 17.4774 8.47219C17.4358 8.37732 17.3751 8.29208 17.2989 8.22185V8.22185Z" fill="white"/>
</svg>
