<svg width="24" height="24" viewBox="0 0 24 24" fill="none" xmlns="http://www.w3.org/2000/svg">
<path d="M14.3361 11.3061H15.362C15.8546 11.3061 16.3088 11.3104 16.6446 11.3174C16.8116 11.3209 16.954 11.3252 17.0589 11.3303C17.1098 11.3327 17.1608 11.3357 17.2044 11.3398C17.2242 11.3417 17.2569 11.3451 17.2927 11.3513C17.309 11.3541 17.344 11.3605 17.386 11.3729C17.4069 11.3791 17.4438 11.3908 17.4875 11.4108C17.5206 11.4259 17.6151 11.4707 17.7083 11.5638L17.7093 11.5648C17.808 11.6639 17.8543 11.7659 17.8732 11.8121C17.8951 11.8657 17.9065 11.9113 17.9123 11.9381C17.9239 11.9913 17.9275 12.035 17.9288 12.0549C17.9318 12.0985 17.931 12.1366 17.9304 12.1569C17.9289 12.2026 17.925 12.2531 17.9209 12.2995C17.9121 12.3961 17.8975 12.5247 17.8789 12.6726C17.8416 12.9707 17.7853 13.372 17.719 13.8057L17.4807 15.3657L17.3835 16.0025H16.7393H15.1616H14.334V19.6028C14.334 20.7966 14.3414 21.8849 14.3534 22.6761C14.3559 22.8441 14.3587 22.9981 14.3615 23.1364C16.5364 22.6698 18.4997 21.5662 20.1087 19.8948C21.6292 18.3152 22.6003 16.4896 23.0828 14.2925L23.0828 14.2925C23.1658 13.9146 23.2275 13.1756 23.245 12.371C23.2624 11.5704 23.234 10.8011 23.1658 10.37M14.3361 11.3061L10.1667 0.853385L10.0413 0.113939L10.1668 0.853365C10.4948 0.797771 11.1613 0.758935 11.8745 0.751354C12.5882 0.743767 13.2528 0.768505 13.5774 0.816961L13.5774 0.816966C14.9072 1.01546 16.483 1.55377 17.5283 2.15782C20.5886 3.9263 22.6133 6.87544 23.1658 10.37M14.3361 11.3061L14.3365 11.1992V11.1992C14.3389 10.3256 14.4049 9.73165 14.5208 9.32764C14.6319 8.93998 14.7719 8.78395 14.8966 8.70107L14.8966 8.70105C14.9731 8.65015 14.9901 8.64203 14.9959 8.63944L14.996 8.63939C14.9965 8.63915 14.9978 8.63859 15.002 8.63738C15.0077 8.63579 15.0214 8.63232 15.048 8.62814C15.1865 8.60636 15.4316 8.59704 16.0426 8.58344C16.0427 8.58344 16.0427 8.58344 16.0427 8.58344L17.2628 8.55635L17.9961 8.54007V7.80654V6.4567V5.10694V4.53567L17.4454 4.3839L17.2264 4.32357L17.2264 4.32355C17.1091 4.29124 16.9532 4.28065 16.8702 4.27501L16.8674 4.27482C16.7486 4.26675 16.5987 4.25981 16.4303 4.25409C16.0924 4.24262 15.6612 4.23545 15.2165 4.23516L14.3361 11.3061ZM23.1658 10.37L23.9066 10.253L23.1658 10.3701C23.1658 10.3701 23.1658 10.3701 23.1658 10.37ZM9.4107 16.0025V19.6075V23.0998C9.19265 23.0428 8.94114 22.9674 8.6736 22.8786C8.03648 22.6672 7.34879 22.3933 6.85028 22.1414C5.3733 21.3948 3.50644 19.7425 2.63803 18.4218C1.8117 17.1651 1.20469 15.7076 0.888145 14.2176L9.4107 16.0025ZM9.4107 16.0025H8.68789H7.21508H6.46508V15.2525V13.6543V12.0561V11.3061H7.21508H8.67523H9.40953L9.43865 10.4134C9.48452 9.00647 9.622 7.91626 9.95388 7.04997C10.3009 6.14424 10.8458 5.51896 11.6145 5.02027C12.0953 4.70835 12.5234 4.49274 13.1054 4.37167C13.6514 4.25808 14.3046 4.23453 15.2165 4.23516L9.4107 16.0025ZM8.89849 1.15071L8.68853 0.430702L8.89849 1.15071ZM0.750001 12.0542C0.750219 11.1409 0.803572 10.2957 0.888916 9.898L0.888134 14.2176C0.802661 13.8151 0.749783 12.967 0.750001 12.0542ZM0.888922 9.89798C1.81625 5.57803 4.78309 2.35083 8.89837 1.15075L0.888922 9.89798Z" stroke="#5DA0EF" stroke-width="1.5"/>
</svg>
