<svg width="108" height="71" viewBox="0 0 108 71" fill="none" xmlns="http://www.w3.org/2000/svg">
<path fill-rule="evenodd" clip-rule="evenodd" d="M87.6476 0.711492C85.9301 2.37462 84.4275 12.2323 84.8462 19.0921C85.2806 26.2103 87.4513 35.1829 89.3366 37.6539L89.9556 38.4653L88.8378 41.0845C85.4501 49.021 82.3234 53.3771 79.6678 53.8595C78.3232 54.1035 76.6994 53.6029 75.7874 52.6632L75.0902 51.9446L76.2222 51.4866C79.2404 50.2656 80.8059 48.1428 80.8383 45.2273C80.8592 43.3425 80.1118 40.9085 79.3162 40.2689C78.6532 39.7364 76.0758 40.6818 74.4998 42.0359C73.2218 43.134 73.1808 43.2262 73.0619 45.2664C72.9506 47.172 73.2467 49.4223 73.7884 50.7895C73.9763 51.2635 73.7261 51.3109 71.0351 51.3109C69.407 51.3109 68.0751 51.2605 68.0751 51.1988C68.0751 51.1373 68.4051 50.3647 68.8081 49.4822C70.78 45.165 71.4227 40.257 70.2852 38.2034C69.4274 36.6545 68.0153 36.04 65.6102 36.1679C62.6193 36.3272 61.4568 36.9895 60.6915 38.9709C60.1461 40.3817 60.0651 41.2841 60.0703 45.8779C60.0802 54.463 60.7195 57.0401 62.8834 57.2179C63.8108 57.2943 64.1263 57.1443 64.9505 56.2356C65.4854 55.6458 66.3435 54.3565 66.8577 53.3702C67.5651 52.0135 67.9207 51.6143 68.3191 51.7307C68.6084 51.8154 70.1468 51.9532 71.7373 52.037C74.1948 52.1665 74.6958 52.2808 75.0698 52.7983C75.7816 53.7822 77.755 54.5924 79.4395 54.5924C80.7221 54.5924 81.204 54.4185 82.4294 53.5128C85.59 51.177 87.7834 47.6329 89.9199 41.41L90.6051 39.4142L92.0184 40.1422C93.7044 41.01 95.4151 41.0744 98.8222 40.3987C101.849 39.7985 103.423 39.124 104.984 37.7583C106.41 36.5113 106.356 36.4573 106.883 39.6765C107.56 43.8115 107.07 59.8172 106.001 68.4643C105.728 70.6799 105.778 71 106.4 71C106.923 71 107.455 68.0824 107.858 63.0068C108.246 58.1063 107.774 37.6213 107.243 36.3126C106.707 34.9935 106.105 35.0075 104.572 36.3759C102.953 37.8209 101.419 38.5151 98.3544 39.1899C95.3349 39.8549 93.1245 39.8197 91.8832 39.087C91.336 38.7639 90.9508 38.3281 91.0272 38.1183C91.1037 37.9089 92.1263 34.6477 93.2999 30.8713C96.0621 21.9835 97.0376 17.7494 97.0376 14.649C97.0376 12.232 97.0246 12.1926 94.9982 8.42036C91.6687 2.22158 90.0135 0 88.7247 0C88.5365 0 88.0518 0.320097 87.6476 0.711492ZM15.0798 0.676588C15.0798 0.720739 14.732 2.23083 14.3068 4.03268C12.6125 11.212 12.1519 17.2091 13.0682 20.1574C13.3174 20.9593 13.4216 21.7012 13.2993 21.8057C13.177 21.9101 10.1655 23.5744 6.60677 25.5036C3.04808 27.4331 0.0877459 29.0533 0.0285884 29.1037C-0.0308771 29.1542 0.00548007 29.3287 0.109314 29.4913C0.28617 29.7681 1.55374 29.2341 10.737 25.0135C12.5 24.2032 14.0421 23.6469 14.1638 23.7775C14.6981 24.3509 16.0042 31.3522 16.0042 33.6439C16.0042 34.8031 16.0005 34.8064 14.2325 35.2894C12.13 35.864 8.40307 37.9349 6.42098 39.6299C5.58939 40.3414 4.50638 41.7429 3.80203 43.0191L2.60132 45.1954V48.7752C2.60132 52.2139 2.64507 52.4565 3.71453 54.9292C6.11534 60.481 11.9544 66.484 14.6513 66.1732C15.9922 66.019 16.6109 64.8412 17.3023 61.1277C18.0889 56.9047 18.1847 46.5521 17.4961 40.1797C17.2511 37.9131 17.1556 35.9958 17.2841 35.9191C17.6954 35.6727 19.5207 36.5921 20.3772 37.477C21.5406 38.6783 22.6545 41.2069 23.2331 43.9597C23.9384 47.3137 23.8888 48.1666 22.8215 51.0418C21.5194 54.5498 20.8345 59.2471 20.9984 63.542C21.1607 67.7904 21.658 68.998 23.185 68.8548C25.3652 68.6504 26.3647 64.2944 25.8631 57.1836C25.393 50.5138 25.4524 47.5348 26.0613 47.3087C26.5844 47.1145 27.8788 47.7824 28.5702 48.6037C29.8868 50.1675 29.9644 50.441 29.9995 53.6411C30.0297 56.4167 30.1391 57.0482 30.8447 58.5147C31.8947 60.6984 33.7582 62.4779 36.1334 63.5659C38.5117 64.6553 39.9848 64.692 41.2117 63.6924C42.8102 62.3899 43.2336 60.9028 43.2918 56.3824C43.3331 53.1951 43.5124 51.6707 44.1523 49.0735C44.5973 47.2687 44.9624 45.4821 44.9639 45.1032C44.9655 44.7243 45.0872 44.4866 45.2344 44.5746C45.3814 44.6626 45.5925 45.7109 45.7034 46.9042C46.1227 51.4198 46.2663 52.2059 46.6709 52.2059C47.3881 52.2059 50.4437 48.6219 51.6774 46.3335L52.8808 44.1005L53.0719 47.6312C53.3905 53.5209 54.5733 56.4044 57.2588 57.8393C58.3526 58.4238 58.6382 58.4772 58.8604 58.1377C59.2843 57.4894 59.2187 57.4023 57.8599 56.8092C56.2143 56.0906 54.9779 54.4221 54.161 51.8184C53.5818 49.9721 53.5322 49.2776 53.6918 45.2374C53.7898 42.753 54.0803 39.9172 54.3373 38.9352C54.7825 37.2332 54.638 36.4021 53.9666 36.8037C53.8033 36.9015 53.5103 37.5936 53.3159 38.3421C52.2341 42.5007 47.6716 51.3443 46.962 50.6573C46.8699 50.5681 46.6607 49.6383 46.4971 48.5909C45.8522 44.4573 45.4945 42.9368 45.1901 43.035C45.0151 43.0916 44.6293 44.2721 44.3329 45.6581C44.0365 47.0444 43.5491 48.7155 43.2499 49.3718L42.7055 50.5651L42.2732 49.0735C41.1236 45.1074 39.3027 41.9974 37.4968 40.9169C34.1051 38.8874 30.6253 41.7429 30.2466 46.866L30.0917 48.9611L29.1331 48.0837C27.9256 46.9781 27.0441 46.5378 26.0382 46.5378C25.3526 46.5378 25.2469 46.4089 25.2429 45.5683C25.2358 44.0764 24.4067 41.0037 23.5227 39.1947C22.4218 36.9412 20.8998 35.5922 18.7994 35.009C17.855 34.7467 17.0431 34.4988 16.9948 34.4586C16.9464 34.4183 16.7122 32.2531 16.4741 29.6473C16.2362 27.0418 15.9595 24.3727 15.8597 23.7164L15.6782 22.5231L20.4635 19.9874C25.8733 17.1211 27.1871 16.6725 29.4841 16.9075C30.5557 17.017 31.1017 16.9624 31.1017 16.7459C31.1017 16.2235 29.6662 16.0156 27.2712 16.1907C25.3098 16.3345 24.476 16.6197 20.1615 18.6226C17.4736 19.8705 15.1615 20.7824 15.0244 20.6497C14.887 20.5166 14.6103 19.2828 14.4094 17.9078C13.9783 14.9571 14.4473 8.12085 15.3815 3.73436C15.6955 2.26066 15.8865 0.951937 15.8061 0.825748C15.6714 0.614836 15.0798 0.49342 15.0798 0.676588ZM90.2958 1.79171C90.7764 2.36687 92.1084 4.78325 93.2561 7.16145L95.343 11.4853L95.3072 15.9601C95.277 19.7413 95.1242 21.1055 94.32 24.7605C93.2447 29.6494 90.6045 37.6497 90.118 37.4937C89.581 37.3212 88.1683 34.3022 87.5126 31.9258C86.457 28.1002 86.1643 23.6654 86.3353 14.0843C86.4998 4.85008 86.8178 2.40296 88.0201 1.11631C88.7041 0.384832 89.2581 0.549206 90.2958 1.79171ZM16.1582 49.5255C16.1582 64.3845 16.0637 65.3319 14.5786 65.3319C13.3424 65.3319 12.1907 64.5823 10.2068 62.486C5.88949 57.9238 3.31583 50.5225 4.29686 45.4886C5.10319 41.3518 8.79036 37.8275 14.0015 36.2133C16.3305 35.4916 16.1582 34.4287 16.1582 49.5255ZM68.3111 37.9525C69.8757 39.2096 69.9527 42.015 68.5363 46.1491C67.4844 49.2188 64.9419 54.2231 63.8851 55.3036C63.1003 56.1061 63.0165 56.1285 62.6455 55.6375C61.8142 54.5364 61.4741 51.7426 61.4836 46.0903C61.4923 41.1099 61.5656 40.2776 62.0891 39.229C62.5876 38.2299 62.9105 37.9767 64.0705 37.6739C65.5784 37.2801 67.6431 37.4158 68.3111 37.9525ZM37.4481 42.7912C38.8171 44.1745 40.4606 47.2058 41.5691 50.3924L42.2202 52.2632L40.5641 55.5978C38.8189 59.1111 37.2636 61.1555 36.3356 61.1555C35.5862 61.1555 33.0699 57.4277 31.965 54.6798C31.1491 52.6516 31.118 52.4067 31.4153 50.3542C31.8143 47.5977 32.7803 44.1519 33.578 42.6379C34.099 41.649 34.3467 41.4664 35.1663 41.4664C35.9128 41.4664 36.44 41.7725 37.4481 42.7912ZM79.1415 42.9726C79.5544 44.8371 79.5618 45.8025 79.1723 47.1172C78.667 48.8229 75.7584 51.2981 74.7149 50.9106C74.1954 50.7173 73.6168 48.4166 73.6383 46.6294C73.6679 44.2068 74.1932 43.2139 75.9319 42.2948C78.2653 41.0613 78.7404 41.1618 79.1415 42.9726ZM31.8886 45.3538C31.0354 47.3713 30.8176 47.6947 30.8068 46.9584C30.7935 46.0301 32.6663 41.9837 32.8554 42.5329C32.9112 42.6949 32.4761 43.9642 31.8886 45.3538ZM24.7795 54.0179C25.0337 56.2207 25.2429 59.0353 25.2445 60.2724C25.2491 63.7386 23.8102 68.2307 23.0618 67.0867C22.685 66.5106 22.7158 58.4443 23.1083 54.9537C23.4358 52.0379 23.9436 49.6508 24.1864 49.8859C24.2585 49.9557 24.5253 51.8148 24.7795 54.0179ZM42.7517 58.4575C42.5098 63.0743 40.5419 64.6825 37.1564 63.0298L36.2789 62.6014L37.4965 62.0179C38.9126 61.3395 40.2969 59.5896 41.6603 56.7547C42.7788 54.429 42.9486 54.6942 42.7517 58.4575ZM33.9554 60.2343C34.2996 60.6617 34.2795 60.6644 33.7486 60.2605C33.105 59.771 31.7173 57.098 31.7351 56.3824C31.7413 56.1362 32.1572 56.7955 32.6601 57.8477C33.1626 58.8996 33.7456 59.9735 33.9554 60.2343Z" fill="#7E7E7E"/>
</svg>
