<svg width="24" height="24" viewBox="0 0 24 24" fill="none" xmlns="http://www.w3.org/2000/svg">
<mask id="path-1-inside-1_138_313" fill="white">
<path fill-rule="evenodd" clip-rule="evenodd" d="M18 1.5H6C3.51472 1.5 1.5 3.51472 1.5 6V18C1.5 20.4853 3.51472 22.5 6 22.5H18C20.4853 22.5 22.5 20.4853 22.5 18V6C22.5 3.51472 20.4853 1.5 18 1.5ZM6 0C2.68629 0 0 2.68629 0 6V18C0 21.3137 2.68629 24 6 24H18C21.3137 24 24 21.3137 24 18V6C24 2.68629 21.3137 0 18 0H6ZM12.0002 16.5C14.4855 16.5 16.5002 14.4853 16.5002 12C16.5002 9.51472 14.4855 7.5 12.0002 7.5C9.51491 7.5 7.5002 9.51472 7.5002 12C7.5002 14.4853 9.51491 16.5 12.0002 16.5ZM12.0002 18C15.3139 18 18.0002 15.3137 18.0002 12C18.0002 8.68629 15.3139 6 12.0002 6C8.68649 6 6.0002 8.68629 6.0002 12C6.0002 15.3137 8.68649 18 12.0002 18ZM19.2002 6C19.8629 6 20.4002 5.46274 20.4002 4.8C20.4002 4.13726 19.8629 3.6 19.2002 3.6C18.5375 3.6 18.0002 4.13726 18.0002 4.8C18.0002 5.46274 18.5375 6 19.2002 6Z"/>
</mask>
<path fill-rule="evenodd" clip-rule="evenodd" d="M18 1.5H6C3.51472 1.5 1.5 3.51472 1.5 6V18C1.5 20.4853 3.51472 22.5 6 22.5H18C20.4853 22.5 22.5 20.4853 22.5 18V6C22.5 3.51472 20.4853 1.5 18 1.5ZM6 0C2.68629 0 0 2.68629 0 6V18C0 21.3137 2.68629 24 6 24H18C21.3137 24 24 21.3137 24 18V6C24 2.68629 21.3137 0 18 0H6ZM12.0002 16.5C14.4855 16.5 16.5002 14.4853 16.5002 12C16.5002 9.51472 14.4855 7.5 12.0002 7.5C9.51491 7.5 7.5002 9.51472 7.5002 12C7.5002 14.4853 9.51491 16.5 12.0002 16.5ZM12.0002 18C15.3139 18 18.0002 15.3137 18.0002 12C18.0002 8.68629 15.3139 6 12.0002 6C8.68649 6 6.0002 8.68629 6.0002 12C6.0002 15.3137 8.68649 18 12.0002 18ZM19.2002 6C19.8629 6 20.4002 5.46274 20.4002 4.8C20.4002 4.13726 19.8629 3.6 19.2002 3.6C18.5375 3.6 18.0002 4.13726 18.0002 4.8C18.0002 5.46274 18.5375 6 19.2002 6Z" fill="#78C1ED"/>
<path d="M6 2.5H18V0.5H6V2.5ZM2.5 6C2.5 4.067 4.067 2.5 6 2.5V0.5C2.96243 0.5 0.5 2.96243 0.5 6H2.5ZM2.5 18V6H0.5V18H2.5ZM6 21.5C4.067 21.5 2.5 19.933 2.5 18H0.5C0.5 21.0376 2.96243 23.5 6 23.5V21.5ZM18 21.5H6V23.5H18V21.5ZM21.5 18C21.5 19.933 19.933 21.5 18 21.5V23.5C21.0376 23.5 23.5 21.0376 23.5 18H21.5ZM21.5 6V18H23.5V6H21.5ZM18 2.5C19.933 2.5 21.5 4.067 21.5 6H23.5C23.5 2.96243 21.0376 0.5 18 0.5V2.5ZM1 6C1 3.23858 3.23858 1 6 1V-1C2.13401 -1 -1 2.13401 -1 6H1ZM1 18V6H-1V18H1ZM6 23C3.23858 23 1 20.7614 1 18H-1C-1 21.866 2.13401 25 6 25V23ZM18 23H6V25H18V23ZM23 18C23 20.7614 20.7614 23 18 23V25C21.866 25 25 21.866 25 18H23ZM23 6V18H25V6H23ZM18 1C20.7614 1 23 3.23858 23 6H25C25 2.13401 21.866 -1 18 -1V1ZM6 1H18V-1H6V1ZM15.5002 12C15.5002 13.933 13.9332 15.5 12.0002 15.5V17.5C15.0378 17.5 17.5002 15.0376 17.5002 12H15.5002ZM12.0002 8.5C13.9332 8.5 15.5002 10.067 15.5002 12H17.5002C17.5002 8.96243 15.0378 6.5 12.0002 6.5V8.5ZM8.5002 12C8.5002 10.067 10.0672 8.5 12.0002 8.5V6.5C8.96263 6.5 6.5002 8.96243 6.5002 12H8.5002ZM12.0002 15.5C10.0672 15.5 8.5002 13.933 8.5002 12H6.5002C6.5002 15.0376 8.96263 17.5 12.0002 17.5V15.5ZM17.0002 12C17.0002 14.7614 14.7616 17 12.0002 17V19C15.8662 19 19.0002 15.866 19.0002 12H17.0002ZM12.0002 7C14.7616 7 17.0002 9.23858 17.0002 12H19.0002C19.0002 8.13401 15.8662 5 12.0002 5V7ZM7.0002 12C7.0002 9.23858 9.23877 7 12.0002 7V5C8.1342 5 5.0002 8.13401 5.0002 12H7.0002ZM12.0002 17C9.23877 17 7.0002 14.7614 7.0002 12H5.0002C5.0002 15.866 8.1342 19 12.0002 19V17ZM19.4002 4.8C19.4002 4.91046 19.3106 5 19.2002 5V7C20.4152 7 21.4002 6.01503 21.4002 4.8H19.4002ZM19.2002 4.6C19.3106 4.6 19.4002 4.68954 19.4002 4.8H21.4002C21.4002 3.58497 20.4152 2.6 19.2002 2.6V4.6ZM19.0002 4.8C19.0002 4.68954 19.0897 4.6 19.2002 4.6V2.6C17.9852 2.6 17.0002 3.58497 17.0002 4.8H19.0002ZM19.2002 5C19.0897 5 19.0002 4.91046 19.0002 4.8H17.0002C17.0002 6.01503 17.9852 7 19.2002 7V5Z" fill="#5DA0EF" mask="url(#path-1-inside-1_138_313)"/>
</svg>
