<svg width="67" height="61" viewBox="0 0 67 61" fill="none" xmlns="http://www.w3.org/2000/svg">
<path fill-rule="evenodd" clip-rule="evenodd" d="M32.4733 0.0272837C29.6066 0.321919 28.6009 2.09856 28.6004 6.86868C28.5999 11.5272 29.4159 13.1584 31.9462 13.5569C33.3202 13.7733 34.7971 13.6342 35.6707 13.2061C36.4039 12.8468 36.8505 12.3894 37.2251 11.6144C37.5653 10.9106 37.6893 10.1893 37.6899 8.91002L37.6903 8.14838H36.0275H34.3647L34.3645 8.68925C34.3643 9.39438 34.2917 10.1481 34.1834 10.5699C34.0419 11.1208 33.7689 11.3714 33.3101 11.3715C32.7287 11.3717 32.4342 11.0236 32.2828 10.1574C32.1914 9.63436 32.1489 8.58254 32.1489 6.84585C32.1489 5.10916 32.1914 4.05734 32.2828 3.53434C32.4329 2.67569 32.7296 2.32013 33.2962 2.32013C34.0274 2.32013 34.273 2.82683 34.2751 4.34014L34.276 4.96933H35.9388H37.6016V4.339C37.6016 3.9923 37.5806 3.54026 37.5549 3.33451C37.3219 1.46682 36.3349 0.403161 34.542 0.0873761C34.0664 0.00361714 33.004 -0.0272458 32.4733 0.0272837ZM0 30.5562V61H1.88451H3.76903V30.5562V0.112455H1.88451H0V30.5562ZM7.75976 6.84585V13.4468H9.46691H11.1741V11.7058V9.96476L11.5361 9.41165C11.7352 9.10743 11.9097 8.866 11.924 8.8751C11.9383 8.88419 12.399 9.91646 12.9477 11.169L13.9454 13.4463L14.4664 13.4465L14.9874 13.4468V14.7052V15.9635H16.5615H18.1357V14.7057V13.4478L19.8074 13.4363L21.4792 13.4247L21.5747 12.8066C21.6272 12.4666 21.7056 11.9549 21.7488 11.6696L21.8275 11.1508H23.214H24.6004L24.6538 11.5258C24.6832 11.7321 24.7604 12.2437 24.8254 12.6628L24.9435 13.4247L26.7719 13.4362C27.7775 13.4426 28.5999 13.4327 28.5994 13.4142C28.5989 13.3957 27.8754 10.43 26.9917 6.82377L25.3849 0.266992L23.2125 0.255954L21.04 0.244915L19.7121 5.77513C18.9818 8.81673 18.3302 11.514 18.264 11.769L18.1437 12.2326L18.1397 11.4268L18.1357 10.621H17.2931H16.4506L15.2901 8.30945L14.1297 5.99793L15.2543 4.05968C15.8728 2.99364 16.6237 1.69924 16.9229 1.18318L17.467 0.244915H15.6287H13.7904L12.5526 2.70647C11.8718 4.06034 11.2838 5.20776 11.2458 5.25633C11.1832 5.33651 11.1768 5.11031 11.1755 2.79477L11.1741 0.244915H9.46691H7.75976V6.84585ZM38.9762 6.84585V13.4468H41.461C42.9349 13.4468 44.1194 13.4275 44.3724 13.3995C45.9876 13.2201 47.0433 12.5457 47.6467 11.3078C47.9724 10.6397 48.0406 10.2742 48.0424 9.18598C48.0442 8.12899 47.9859 7.74596 47.7345 7.16292C47.5039 6.6284 47.318 6.34581 46.9674 5.99713C46.7033 5.73447 46.5622 5.63649 46.1915 5.45842C45.4177 5.08678 44.6997 4.96942 43.1997 4.96937L42.3905 4.96933V2.60712V0.244915H40.6833H38.9762V6.84585ZM48.82 6.84585V13.4468H50.5271H52.2343V6.84585V0.244915H50.5271H48.82V6.84585ZM53.7862 6.84585V13.4468H55.3825H56.9788V8.51485C56.9788 5.71998 56.9955 3.6011 57.0174 3.62486C57.0386 3.64791 57.4589 5.83253 57.9515 8.47953C58.444 11.1265 58.857 13.327 58.8693 13.3695C58.8897 13.4407 58.9883 13.4468 60.1251 13.4468H61.3587L61.3848 13.3033C61.668 11.7395 63.1977 3.61899 63.2116 3.60512C63.2223 3.59453 63.231 5.80458 63.231 8.51631V13.4468H64.8494H66.4679V6.84585V0.244915H64.0099C61.7073 0.244915 61.5505 0.249816 61.529 0.322184C61.5164 0.364659 61.205 2.09825 60.837 4.17457C60.469 6.25088 60.1582 7.97737 60.1464 8.01119C60.1347 8.04501 60.1162 8.064 60.1055 8.05331C60.0887 8.03653 58.7081 0.350707 58.7081 0.273659C58.7081 0.257852 57.6007 0.244915 56.2472 0.244915H53.7862V6.84585ZM23.7204 5.78687C23.9656 7.24433 24.1661 8.46133 24.1661 8.49127C24.1661 8.53277 23.9392 8.54576 23.2128 8.54576C22.4139 8.54576 22.2594 8.53547 22.2594 8.48235C22.2594 8.40795 23.1348 3.18915 23.1746 3.02658L23.2016 2.9162L23.2381 3.02658C23.2583 3.08729 23.4753 4.32941 23.7204 5.78687ZM43.4782 7.4662C44.2463 7.66542 44.5398 8.14188 44.5373 9.18598C44.5359 9.78399 44.4687 10.0772 44.257 10.409C44.0043 10.805 43.5754 10.9742 42.8246 10.9742H42.3905V9.18598V7.39777H42.8024C43.0314 7.39777 43.3315 7.42814 43.4782 7.4662ZM24.0156 16.7185C21.8511 16.9458 20.9005 18.2121 20.6605 21.1879C20.5909 22.0514 20.6299 24.2339 20.7273 24.9267C20.9999 26.8647 21.6389 27.907 22.837 28.3681C23.3992 28.5845 23.8661 28.653 24.7647 28.6512C25.7735 28.6491 26.288 28.5537 26.9153 28.2523C27.6163 27.9155 28.0872 27.366 28.4116 26.506C28.7126 25.7081 28.8519 24.7635 28.8953 23.2268C28.9629 20.828 28.6683 19.0908 28.0289 18.1178C27.2974 17.0048 25.9067 16.5199 24.0156 16.7185ZM7.53225 17.2992C7.88064 17.9488 9.55218 21.1238 9.70445 21.4252L9.84275 21.6989L8.40218 25.0807C7.60989 26.9408 6.96162 28.4717 6.96162 28.4828C6.96162 28.494 7.70491 28.503 8.61334 28.5028L10.2651 28.5026L10.9692 26.4828C11.3565 25.372 11.6889 24.446 11.7079 24.4251C11.7269 24.4043 11.8939 24.7003 12.079 25.083L12.4156 25.7787V27.1409V28.5031H13.8789H15.3422V27.1134V25.7236L15.6593 25.0602C15.8337 24.6954 15.9885 24.3968 16.0032 24.3968C16.018 24.3968 16.3517 25.3158 16.7449 26.4389L17.4597 28.481L19.1298 28.4926C20.7126 28.5035 20.7977 28.5001 20.7592 28.4264C20.6605 28.2376 17.8995 21.721 17.9015 21.6814C17.9027 21.6571 18.4646 20.5752 19.1503 19.2771C19.8361 17.979 20.3971 16.9108 20.3971 16.9033C20.3971 16.8958 19.6844 16.8949 18.8133 16.9012L17.2295 16.9128L16.2969 19.1035L15.3643 21.294L15.3528 19.0924L15.3414 16.8907H13.8785H12.4156V19.0763C12.4156 20.2784 12.4007 21.2616 12.3824 21.2612C12.364 21.2609 11.9308 20.2774 11.4195 19.0756L10.4899 16.8907H8.9016H7.31324L7.53225 17.2992ZM29.8862 22.6965V28.5031H31.2829H32.6797V24.2007C32.6797 21.8344 32.6954 19.8887 32.7147 19.8768C32.7339 19.865 33.106 21.7655 33.5416 24.1001C33.9771 26.4348 34.3428 28.3805 34.3542 28.424C34.3735 28.4973 34.4543 28.5031 35.4525 28.5031H36.53L36.5734 28.2934C36.5973 28.178 36.9618 26.2319 37.3834 23.9688C37.805 21.7055 38.1663 19.8639 38.1862 19.8761C38.2061 19.8884 38.2224 21.8344 38.2224 24.2007V28.5031H39.6191H41.0159V22.6965V16.8899L38.855 16.9013L36.6942 16.9128L36.0862 20.3126C35.7518 22.1825 35.4771 23.7307 35.4757 23.7529C35.4647 23.9297 35.3464 23.3173 34.8142 20.3277L34.2064 16.9128L32.0463 16.9013L29.8862 16.8899V22.6965ZM42.9095 22.553C42.1613 25.6677 41.5363 28.2807 41.5208 28.3596L41.4926 28.5031H43.0722C43.941 28.5031 44.6519 28.4963 44.6519 28.488C44.6519 28.4498 44.9215 26.7012 44.944 26.5935L44.9693 26.472H46.1795H47.3895L47.4677 26.9908C47.5107 27.2762 47.5788 27.7282 47.6192 27.9953L47.6925 28.481L49.2983 28.4926C50.1814 28.499 50.9035 28.4891 50.9028 28.4705C50.9022 28.452 50.2673 25.844 49.492 22.6748L48.0824 16.9128L46.1762 16.9013L44.27 16.8898L42.9095 22.553ZM51.3475 22.6969V28.5031H52.8551H54.3627V26.2954V24.0878H55.0295C56.7015 24.0878 57.6103 23.8193 58.3191 23.1159C58.8256 22.6133 59.085 22.0331 59.1955 21.1561C59.3239 20.1366 59.134 19.0117 58.7179 18.3262C58.2488 17.5532 57.4458 17.062 56.4479 16.9376C56.2253 16.9098 55.1095 16.8907 53.7098 16.8907H51.3475V22.6969ZM59.4619 18.1712V19.4516H60.5927H61.7234V23.9774V28.5031H63.231H64.7386V23.9774V19.4516H65.8693H67V18.1712V16.8907H63.231H59.4619V18.1712ZM25.1098 18.7616C25.3935 18.8819 25.5435 19.1372 25.6557 19.6906C25.7693 20.251 25.8293 22.5011 25.7708 24.0105C25.7076 25.642 25.6231 26.1266 25.3501 26.4219C25.0373 26.7604 24.348 26.7086 24.089 26.3272C23.8209 25.9324 23.7227 24.9534 23.7227 22.6748C23.7227 20.3962 23.821 19.4165 24.089 19.0229C24.2824 18.739 24.7653 18.6154 25.1098 18.7616ZM55.3942 19.1238C55.8593 19.2816 56.1086 19.758 56.1086 20.4893C56.1086 21.0138 56.0102 21.341 55.7767 21.5932C55.5426 21.8462 55.3066 21.9242 54.776 21.9242H54.3627V20.4893V19.0543H54.776C55.0357 19.0543 55.2655 19.0801 55.3942 19.1238ZM46.6199 21.765L47.0245 24.154L46.1865 24.166C45.7256 24.1726 45.3423 24.1719 45.3348 24.1643C45.3186 24.1482 46.1107 19.4166 46.1459 19.3192C46.1657 19.2645 46.1738 19.2637 46.1926 19.3145C46.2052 19.3483 46.3975 20.451 46.6199 21.765ZM19.9422 30.1852C18.4164 30.3539 17.4242 30.985 16.8289 32.1652C16.3245 33.1654 16.1069 34.4038 16.0646 36.5169C16.0099 39.2399 16.2825 40.9344 16.9633 42.1041C17.0564 42.2641 17.2967 42.5548 17.5105 42.7662C17.9638 43.2141 18.4022 43.4533 19.0874 43.6263C20.0549 43.8707 21.4943 43.8704 22.4636 43.6256C23.1621 43.4491 23.584 43.216 24.0576 42.7446C24.394 42.4099 24.4954 42.2737 24.6838 41.9037C25.2786 40.7354 25.4696 39.5646 25.4724 37.0689C25.4753 34.5784 25.2903 33.3518 24.7424 32.228C24.1884 31.0918 23.346 30.4799 22.0156 30.2475C21.5168 30.1604 20.4551 30.1285 19.9422 30.1852ZM7.00596 31.8588V33.3158H8.29186H9.57776V38.4597V43.6036H11.2849H12.9921V38.4597V33.3158H14.3001H15.6082V31.8588V30.4017H11.3071H7.00596V31.8588ZM26.6049 37.0026V43.6036H28.312H30.0192V41.8625V40.1215L30.3812 39.5684C30.5803 39.2642 30.7549 39.0228 30.7692 39.0319C30.7835 39.041 31.2441 40.0732 31.7929 41.3257L32.7905 43.6031L33.3116 43.6033L33.8326 43.6036V44.8619V46.1203H35.4067H36.9808V44.8625V43.6046L38.6526 43.5931L40.3243 43.5815L40.4198 42.9633C40.4723 42.6234 40.5507 42.1118 40.594 41.8264L40.6727 41.3076H42.0591H43.4455L43.499 41.6826C43.5284 41.8889 43.6056 42.4005 43.6706 42.8196L43.7886 43.5815L45.617 43.593C46.6226 43.5994 47.445 43.5894 47.4445 43.5709C47.444 43.5524 46.7206 40.5868 45.8368 36.9806L44.2301 30.4238L42.0576 30.4127L39.8852 30.4017L38.5573 35.9319C37.827 38.9735 37.1753 41.6707 37.1091 41.9257L36.9888 42.3893L36.9848 41.5835L36.9808 40.7777H36.1383H35.2957L34.1353 38.4662L32.9749 36.1547L34.0995 34.2165C34.7179 33.1504 35.4689 31.856 35.7681 31.34L36.3122 30.4017H34.4738H32.6355L31.3977 32.8632C30.717 34.2171 30.1289 35.3645 30.091 35.4131C30.0284 35.4933 30.0219 35.2671 30.0206 32.9516L30.0192 30.4017H28.312H26.6049V37.0026ZM48.0662 37.0026V43.6036H52.0569H56.0477V42.1907V40.7777H53.7641H51.4805V39.4752V38.1727H53.5424H55.6042V36.826V35.4793H53.5424H51.4805V34.3534V33.2275H53.6754H55.8703V31.8146V30.4017H51.9682H48.0662V37.0026ZM57.4222 37.0056V43.6096L60.4485 43.5919C63.2993 43.5753 63.498 43.569 63.8747 43.4841C65.5624 43.1035 66.4598 42.0154 66.5971 40.1834C66.6906 38.9364 66.391 37.9915 65.6971 37.3452C65.3502 37.0221 64.9475 36.8157 64.5257 36.7449C64.1504 36.6819 64.1015 36.6482 64.3263 36.6073C64.419 36.5905 64.6444 36.5055 64.8273 36.4184C65.4365 36.1285 65.8902 35.5479 66.1136 34.7722C66.2578 34.2716 66.2826 33.3803 66.1675 32.8301C65.8719 31.4157 64.9131 30.6135 63.3197 30.4472C63.088 30.423 61.6663 30.4029 60.1603 30.4024L57.4222 30.4017V37.0056ZM21.1085 32.5209C21.195 32.5448 21.3286 32.6291 21.4055 32.7083C21.8361 33.1513 21.9482 34.0387 21.9482 37.0026C21.9482 39.9666 21.8361 40.8539 21.4055 41.297C21.2479 41.4592 21.0503 41.5277 20.7393 41.5281C20.1819 41.5288 19.8835 41.1684 19.7342 40.3141C19.6428 39.7911 19.6003 38.7393 19.6003 37.0026C19.6003 33.6535 19.7462 32.8127 20.3749 32.5384C20.5338 32.4691 20.8905 32.4606 21.1085 32.5209ZM62.1478 32.9579C62.7608 33.2351 63.0049 34.2627 62.6313 34.9936C62.3971 35.452 62.1519 35.5676 61.4144 35.5676H60.8809V34.221V32.8743L61.4241 32.8753C61.8563 32.876 62.0041 32.8929 62.1478 32.9579ZM42.5656 35.9437C42.8107 37.4011 43.0113 38.6181 43.0113 38.648C43.0113 38.6896 42.7843 38.7025 42.0579 38.7025C41.259 38.7025 41.1046 38.6922 41.1046 38.6391C41.1046 38.5647 41.98 33.3459 42.0197 33.1834L42.0467 33.073L42.0833 33.1834C42.1035 33.2441 42.3205 34.4862 42.5656 35.9437ZM62.1788 37.9608C62.4253 38.0343 62.7987 38.3861 62.9144 38.6538C63.1221 39.1346 63.1227 39.9028 62.9158 40.3817C62.7987 40.6527 62.4269 41.004 62.1788 41.078C62.0812 41.1071 61.7492 41.131 61.4411 41.131H60.8809V39.5194V37.9078H61.4411C61.7492 37.9078 62.0812 37.9316 62.1788 37.9608Z" fill="white"/>
</svg>
