<svg width="157" height="38" viewBox="0 0 157 38" fill="none" xmlns="http://www.w3.org/2000/svg">
<path d="M15.2 8C15.2 9.81333 14.6267 11.3867 13.48 12.72L14.92 14.22L12.96 15.96L11.44 14.38C10.36 14.98 9.18667 15.28 7.92 15.28C5.90667 15.28 4.19333 14.58 2.78 13.18C1.36667 11.7667 0.66 10.04 0.66 8C0.66 5.96 1.36667 4.24 2.78 2.84C4.19333 1.42667 5.90667 0.719999 7.92 0.719999C9.93333 0.719999 11.6467 1.42667 13.06 2.84C14.4867 4.24 15.2 5.96 15.2 8ZM7.92 12.58C8.44 12.58 8.96 12.4933 9.48 12.32L7.18 9.92L9.14 8.18L11.6 10.74C12.16 9.94 12.44 9.02667 12.44 8C12.44 6.66667 12.0067 5.56667 11.14 4.7C10.2733 3.83333 9.2 3.4 7.92 3.4C6.64 3.4 5.56667 3.83333 4.7 4.7C3.83333 5.56667 3.4 6.66667 3.4 8C3.4 9.32 3.83333 10.4133 4.7 11.28C5.56667 12.1467 6.64 12.58 7.92 12.58ZM25.7297 15L24.8897 12.48H19.3097L18.4697 15H15.4897L20.3897 0.999999H23.8097L28.7297 15H25.7297ZM20.1897 9.9H24.0297L22.1097 4.18L20.1897 9.9ZM34.5566 15.28C33.1699 15.28 32.0032 14.9733 31.0566 14.36C30.1099 13.7333 29.4432 12.8867 29.0566 11.82L31.4166 10.44C31.9632 11.8667 33.0366 12.58 34.6366 12.58C35.4099 12.58 35.9766 12.44 36.3366 12.16C36.6966 11.88 36.8766 11.5267 36.8766 11.1C36.8766 10.6067 36.6566 10.2267 36.2166 9.96C35.7766 9.68 34.9899 9.38 33.8566 9.06C33.2299 8.87333 32.6966 8.68667 32.2566 8.5C31.8299 8.31333 31.3966 8.06667 30.9566 7.76C30.5299 7.44 30.2032 7.04 29.9766 6.56C29.7499 6.08 29.6366 5.52 29.6366 4.88C29.6366 3.61333 30.0832 2.60667 30.9766 1.86C31.8832 1.1 32.9699 0.719999 34.2366 0.719999C35.3699 0.719999 36.3632 0.999999 37.2166 1.56C38.0832 2.10667 38.7566 2.87333 39.2366 3.86L36.9166 5.2C36.3566 4 35.4632 3.4 34.2366 3.4C33.6632 3.4 33.2099 3.53333 32.8766 3.8C32.5566 4.05333 32.3966 4.38667 32.3966 4.8C32.3966 5.24 32.5766 5.6 32.9366 5.88C33.3099 6.14667 34.0166 6.44 35.0566 6.76C35.4832 6.89333 35.8032 7 36.0166 7.08C36.2432 7.14667 36.5432 7.26 36.9166 7.42C37.3032 7.56667 37.5966 7.70667 37.7966 7.84C38.0099 7.97333 38.2499 8.15333 38.5166 8.38C38.7832 8.60667 38.9832 8.84 39.1166 9.08C39.2632 9.32 39.3832 9.61333 39.4766 9.96C39.5832 10.2933 39.6366 10.66 39.6366 11.06C39.6366 12.3533 39.1632 13.38 38.2166 14.14C37.2832 14.9 36.0632 15.28 34.5566 15.28ZM51.8917 0.999999L47.0917 9.54V15H44.3517V9.54L39.5717 0.999999H42.6917L45.7317 6.84L48.7717 0.999999H51.8917ZM66.9336 0.999999V15H64.1936V5.92L60.2536 12.42H59.9336L55.9936 5.94V15H53.2336V0.999999H56.0736L60.0936 7.62L64.0936 0.999999H66.9336ZM69.5422 10.2V7.72H77.0422V10.2H69.5422ZM82.8191 15.28C80.6191 15.28 79.0791 14.3933 78.1991 12.62L80.5791 11.26C81.0191 12.14 81.7657 12.58 82.8191 12.58C83.5524 12.58 84.0991 12.4067 84.4591 12.06C84.8191 11.7133 84.9991 11.24 84.9991 10.64V0.999999H87.7391V10.64C87.7391 12.1067 87.2791 13.2467 86.3591 14.06C85.4391 14.8733 84.2591 15.28 82.8191 15.28ZM102.006 13.18C100.592 14.58 98.8724 15.28 96.8458 15.28C94.8191 15.28 93.0991 14.58 91.6858 13.18C90.2858 11.7667 89.5858 10.04 89.5858 8C89.5858 5.96 90.2858 4.24 91.6858 2.84C93.0991 1.42667 94.8191 0.719999 96.8458 0.719999C98.8724 0.719999 100.592 1.42667 102.006 2.84C103.419 4.24 104.126 5.96 104.126 8C104.126 10.04 103.419 11.7667 102.006 13.18ZM93.6258 11.3C94.4924 12.1533 95.5658 12.58 96.8458 12.58C98.1258 12.58 99.1991 12.1533 100.066 11.3C100.932 10.4333 101.366 9.33333 101.366 8C101.366 6.66667 100.932 5.56667 100.066 4.7C99.1991 3.83333 98.1258 3.4 96.8458 3.4C95.5658 3.4 94.4924 3.83333 93.6258 4.7C92.7591 5.56667 92.3258 6.66667 92.3258 8C92.3258 9.33333 92.7591 10.4333 93.6258 11.3ZM119.766 0.999999V15H117.026V5.92L113.086 12.42H112.766L108.826 5.94V15H106.066V0.999999H108.906L112.926 7.62L116.926 0.999999H119.766ZM131.374 15L130.534 12.48H124.954L124.114 15H121.134L126.034 0.999999H129.454L134.374 15H131.374ZM125.834 9.9H129.674L127.754 4.18L125.834 9.9ZM143.414 15L140.594 10.14H138.494V15H135.734V0.999999H141.334C142.627 0.999999 143.727 1.45333 144.634 2.36C145.54 3.26667 145.994 4.36 145.994 5.64C145.994 6.50667 145.747 7.31333 145.254 8.06C144.76 8.79333 144.107 9.34667 143.294 9.72L146.394 15H143.414ZM138.494 3.58V7.72H141.334C141.854 7.72 142.3 7.52 142.674 7.12C143.047 6.70667 143.234 6.21333 143.234 5.64C143.234 5.06667 143.047 4.58 142.674 4.18C142.3 3.78 141.854 3.58 141.334 3.58H138.494ZM156.986 0.999999V3.64H153.206V15H150.446V3.64H146.686V0.999999H156.986ZM10.56 23V25.64H6.78V37H4.02V25.64H0.26V23H10.56ZM23.08 35.18C21.6667 36.58 19.9467 37.28 17.92 37.28C15.8933 37.28 14.1733 36.58 12.76 35.18C11.36 33.7667 10.66 32.04 10.66 30C10.66 27.96 11.36 26.24 12.76 24.84C14.1733 23.4267 15.8933 22.72 17.92 22.72C19.9467 22.72 21.6667 23.4267 23.08 24.84C24.4933 26.24 25.2 27.96 25.2 30C25.2 32.04 24.4933 33.7667 23.08 35.18ZM14.7 33.3C15.5667 34.1533 16.64 34.58 17.92 34.58C19.2 34.58 20.2733 34.1533 21.14 33.3C22.0067 32.4333 22.44 31.3333 22.44 30C22.44 28.6667 22.0067 27.5667 21.14 26.7C20.2733 25.8333 19.2 25.4 17.92 25.4C16.64 25.4 15.5667 25.8333 14.7 26.7C13.8333 27.5667 13.4 28.6667 13.4 30C13.4 31.3333 13.8333 32.4333 14.7 33.3ZM41.0398 30C41.0398 31.8133 40.4665 33.3867 39.3198 34.72L40.7598 36.22L38.7998 37.96L37.2798 36.38C36.1998 36.98 35.0265 37.28 33.7598 37.28C31.7465 37.28 30.0332 36.58 28.6198 35.18C27.2065 33.7667 26.4998 32.04 26.4998 30C26.4998 27.96 27.2065 26.24 28.6198 24.84C30.0332 23.4267 31.7465 22.72 33.7598 22.72C35.7732 22.72 37.4865 23.4267 38.8998 24.84C40.3265 26.24 41.0398 27.96 41.0398 30ZM33.7598 34.58C34.2798 34.58 34.7998 34.4933 35.3198 34.32L33.0198 31.92L34.9798 30.18L37.4398 32.74C37.9998 31.94 38.2798 31.0267 38.2798 30C38.2798 28.6667 37.8465 27.5667 36.9798 26.7C36.1132 25.8333 35.0398 25.4 33.7598 25.4C32.4798 25.4 31.4065 25.8333 30.5398 26.7C29.6732 27.5667 29.2398 28.6667 29.2398 30C29.2398 31.32 29.6732 32.4133 30.5398 33.28C31.4065 34.1467 32.4798 34.58 33.7598 34.58ZM51.5695 37L50.7295 34.48H45.1495L44.3095 37H41.3295L46.2295 23H49.6495L54.5695 37H51.5695ZM46.0295 31.9H49.8695L47.9495 26.18L46.0295 31.9ZM58.6889 34.36H64.5889V37H55.9289V23H64.4889V25.64H58.6889V28.62H63.9889V31.22H58.6889V34.36ZM69.9944 37L65.2944 23H68.2944L71.7144 33.76L75.1144 23H78.1344L73.4144 37H69.9944Z" fill="white"/>
</svg>
