<svg width="40" height="40" viewBox="0 0 40 40" fill="none" xmlns="http://www.w3.org/2000/svg">
<circle cx="20" cy="20" r="20" fill="#FFFAD5"/>
<path fill-rule="evenodd" clip-rule="evenodd" d="M15.351 11.2677C13.3909 11.5429 11.8133 12.9532 11.3315 14.8607C11.2861 15.0403 11.2324 15.3265 11.2121 15.4966C11.1611 15.9236 11.1611 24.11 11.2121 24.5371C11.4511 26.5402 12.8761 28.1695 14.8182 28.6601C14.9978 28.7055 15.2839 28.7592 15.4541 28.7795C15.8811 28.8305 24.0666 28.8305 24.4936 28.7795C26.2989 28.564 27.8083 27.3859 28.4642 25.6803C28.5704 25.4042 28.6945 24.8813 28.7356 24.5371C28.7866 24.11 28.7866 15.9236 28.7356 15.4966C28.5201 13.6911 27.3421 12.1815 25.6367 11.5256C25.3606 11.4194 24.8377 11.2952 24.4936 11.2541C24.0231 11.198 15.7603 11.2103 15.351 11.2677ZM24.3233 12.2859C26.1179 12.4665 27.5233 13.8721 27.7039 15.6669C27.7559 16.1834 27.7559 23.8503 27.7039 24.3668C27.5233 26.1616 26.1179 27.5671 24.3233 27.7478C23.8068 27.7997 16.1408 27.7997 15.6243 27.7478C13.8298 27.5671 12.4243 26.1616 12.2437 24.3668C12.1918 23.8503 12.1918 16.1834 12.2437 15.6669C12.3296 14.8143 12.6669 14.0756 13.2541 13.4543C13.8717 12.8008 14.7197 12.3743 15.5744 12.2872C16.0221 12.2415 23.8712 12.2404 24.3233 12.2859ZM19.9998 22.7C21.4909 22.7 22.6998 21.4912 22.6998 20C22.6998 18.5088 21.4909 17.3 19.9998 17.3C18.5086 17.3 17.2998 18.5088 17.2998 20C17.2998 21.4912 18.5086 22.7 19.9998 22.7ZM19.9998 24C22.2089 24 23.9998 22.2091 23.9998 20C23.9998 17.7909 22.2089 16 19.9998 16C17.7906 16 15.9998 17.7909 15.9998 20C15.9998 22.2091 17.7906 24 19.9998 24ZM25.1658 15.5138C25.5455 15.5138 25.8533 15.206 25.8533 14.8263C25.8533 14.4466 25.5455 14.1388 25.1658 14.1388C24.7861 14.1388 24.4783 14.4466 24.4783 14.8263C24.4783 15.206 24.7861 15.5138 25.1658 15.5138Z" fill="#695F12"/>
</svg>
