<svg width="40" height="40" viewBox="0 0 40 40" fill="none" xmlns="http://www.w3.org/2000/svg">
<circle cx="20" cy="20" r="20" fill="#E6FCFF"/>
<path fill-rule="evenodd" clip-rule="evenodd" d="M13.2657 11.2561C12.2669 11.4704 11.4654 12.2783 11.2558 13.2821C11.1803 13.6437 11.1803 26.3592 11.2558 26.7207C11.4672 27.7329 12.2711 28.5372 13.2829 28.7486C13.4831 28.7905 14.0251 28.799 16.5208 28.7995L19.5183 28.8001V25.6724V22.5448H18.4876H17.457V21.5137V20.4826H18.4854H19.5138L19.5272 18.9617C19.5415 17.3407 19.541 17.346 19.7251 16.9081C19.9724 16.32 20.5069 15.7855 21.0986 15.5347C21.5341 15.35 21.5301 15.3504 23.1513 15.3361L24.6715 15.3226V16.3543V17.3859L23.512 17.3962C22.1966 17.4079 22.1754 17.4118 21.8887 17.6986C21.602 17.9855 21.5981 18.0066 21.5864 19.3226L21.5761 20.4826H23.0723C24.4751 20.4826 24.5683 20.4863 24.5663 20.5427C24.5651 20.5758 24.4911 21.036 24.4019 21.5652L24.2396 22.5276L22.9096 22.5366L21.5795 22.5456V25.6728V28.8001L24.0273 28.7995C26.0407 28.799 26.5178 28.79 26.7156 28.7486C27.7274 28.5372 28.5313 27.7329 28.7426 26.7207C28.8181 26.3592 28.8181 13.6437 28.7426 13.2821C28.5313 12.2699 27.7274 11.4657 26.7156 11.2542C26.3643 11.1808 13.6084 11.1826 13.2657 11.2561ZM26.496 12.269C27.113 12.386 27.6113 12.8845 27.7283 13.5018C27.7768 13.7572 27.7768 26.2456 27.7283 26.501C27.6113 27.1183 27.113 27.6168 26.496 27.7339C26.3846 27.755 25.5757 27.769 24.4607 27.769H22.6102V25.6724V23.5759H23.8585H25.1068L25.4503 21.5137L25.7937 19.4515H24.2019H22.6102V18.936V18.4204H24.1561H25.7021V16.3582V14.296H23.7762C22.5786 14.296 21.7569 14.31 21.6033 14.333C20.1752 14.5466 19.0302 15.5452 18.6311 16.9253C18.5135 17.3319 18.4876 17.626 18.4876 18.5559V19.4515H17.457H16.4263V21.5137V23.5759H17.457H18.4876V25.6724V27.769H16.0874C14.5986 27.769 13.6171 27.7556 13.5024 27.7339C12.8854 27.6168 12.3871 27.1183 12.2701 26.501C12.2217 26.2456 12.2217 13.7572 12.2701 13.5018C12.3844 12.8988 12.8858 12.3869 13.4755 12.271C13.6978 12.2274 26.2663 12.2253 26.496 12.269Z" fill="#5CC8D7"/>
</svg>
