<svg width="40" height="40" viewBox="0 0 40 40" fill="none" xmlns="http://www.w3.org/2000/svg">
<circle cx="20" cy="20" r="20" fill="#E6FCFF"/>
<path fill-rule="evenodd" clip-rule="evenodd" d="M27.7245 12.1604C27.4353 12.2544 23.5653 13.4989 19.1245 14.926C13.3159 16.7926 11.0084 17.5493 10.9012 17.6227C10.4412 17.9376 10.2677 18.5617 10.5092 19.0324C10.6121 19.233 10.8239 19.4491 11.0088 19.5421C11.0892 19.5825 12.0763 20.0095 13.2024 20.4909C14.3284 20.9722 15.2547 21.371 15.2608 21.3769C15.2669 21.3829 15.5592 22.6863 15.9105 24.2733C16.2617 25.8604 16.5793 27.219 16.6162 27.2925C16.7412 27.5408 17.0475 27.6569 17.3156 27.5575C17.3664 27.5387 18.1526 26.979 19.0626 26.3137L20.7173 25.1042L22.5497 26.5665C23.5575 27.3707 24.4643 28.0725 24.5648 28.1261C24.8066 28.255 25.1355 28.2821 25.4333 28.1977C25.7372 28.1116 26.0845 27.777 26.1766 27.4819C26.2111 27.3712 27.0022 24.1166 27.9345 20.2496C29.7955 12.5306 29.6967 13.0123 29.4974 12.6304C29.2939 12.2404 28.9585 12.0258 28.517 12.0032C28.279 11.991 28.1935 12.008 27.7245 12.1604ZM28.4763 13.1912C28.462 13.2466 27.699 16.4056 26.7809 20.2113C25.8627 24.017 25.1038 27.1383 25.0944 27.1475C25.085 27.1566 25.0477 27.1391 25.0114 27.1085C24.9751 27.0779 23.678 26.0429 22.1288 24.8084C20.5797 23.574 19.2989 22.5527 19.2827 22.5388C19.2664 22.5249 20.5761 21.1656 22.1931 19.5181C23.8102 17.8706 25.1711 16.4631 25.2175 16.3903C25.273 16.3032 25.3019 16.2003 25.302 16.0889C25.3022 15.9445 25.2811 15.8964 25.1589 15.7621C25.0254 15.6155 25 15.6035 24.7927 15.5894L24.5699 15.5743L20.2323 17.9272C17.8467 19.2214 15.8509 20.2966 15.7972 20.3166C15.7118 20.3485 15.4375 20.2412 13.6057 19.4597C12.0591 18.7999 11.5265 18.5573 11.5681 18.5318C11.6339 18.4913 28.3758 13.099 28.4514 13.0939C28.4887 13.0914 28.4954 13.1176 28.4763 13.1912ZM21.6546 18.4622C21.6263 18.4962 20.7862 19.3567 19.7877 20.3745C18.7893 21.3922 17.9515 22.2666 17.926 22.3175C17.9005 22.3685 17.7302 22.921 17.5476 23.5454C17.3649 24.1697 17.2048 24.6929 17.1917 24.708C17.1699 24.7331 16.43 21.4695 16.4234 21.3194C16.4212 21.27 17.0608 20.9068 19.0494 19.8281C20.4952 19.0438 21.6845 18.4016 21.6922 18.4012C21.6999 18.4007 21.683 18.4281 21.6546 18.4622ZM19.3246 23.9944C19.5792 24.1967 19.7872 24.3735 19.7869 24.3871C19.7861 24.4165 18.1542 25.6142 18.1373 25.5977C18.1308 25.5915 18.2288 25.2342 18.355 24.8039C18.762 23.4157 18.7269 23.5132 18.7985 23.5734C18.8332 23.6026 19.07 23.7921 19.3246 23.9944Z" fill="#5CC8D7"/>
</svg>
