<svg width="29" height="29" viewBox="0 0 29 29" fill="none" xmlns="http://www.w3.org/2000/svg">
<path d="M27.2352 7.75766C27.0917 7.1842 26.7994 6.65877 26.3878 6.23445C25.9762 5.81012 25.4599 5.50193 24.8911 5.341C22.8127 4.8335 14.4994 4.8335 14.4994 4.8335C14.4994 4.8335 6.18606 4.8335 4.10772 5.38933C3.5389 5.55026 3.02261 5.85845 2.61102 6.28278C2.19942 6.7071 1.90709 7.23253 1.76356 7.806C1.38319 9.91521 1.19713 12.0549 1.20772 14.1981C1.19416 16.3574 1.38023 18.5134 1.76356 20.6385C1.9218 21.1941 2.22068 21.6996 2.63131 22.106C3.04195 22.5124 3.55046 22.806 4.10772 22.9585C6.18606 23.5143 14.4994 23.5143 14.4994 23.5143C14.4994 23.5143 22.8127 23.5143 24.8911 22.9585C25.4599 22.7976 25.9762 22.4894 26.3878 22.065C26.7994 21.6407 27.0917 21.1153 27.2352 20.5418C27.6127 18.4485 27.7987 16.3251 27.7911 14.1981C27.8046 12.0387 27.6185 9.88276 27.2352 7.75766V7.75766Z" stroke="#DFF3FF" stroke-width="1.5" stroke-linecap="round" stroke-linejoin="round"/>
<path d="M11.7812 18.1491L18.7292 14.1978L11.7812 10.2466V18.1491Z" stroke="#DFF3FF" stroke-width="1.5" stroke-linecap="round" stroke-linejoin="round"/>
</svg>
