<svg width="170" height="76" viewBox="0 0 170 76" fill="none" xmlns="http://www.w3.org/2000/svg">
<path fill-rule="evenodd" clip-rule="evenodd" d="M53.1609 0.440169C49.3489 2.07099 44.4701 7.20572 38.3972 15.9789C38.1397 16.351 37.6481 17.0167 37.3047 17.4583C36.6486 18.3021 36.0624 19.2549 35.3688 20.6045C35.1397 21.0503 34.3228 21.986 33.5533 22.6836C32.7839 23.3813 32.1543 24.2036 32.1543 24.5106C32.1543 25.0087 29.9683 27.3172 29.4966 27.3172C29.3936 27.3172 28.3692 27.966 27.2202 28.7589C23.3942 31.399 19.6356 33.9117 18.5346 34.5655C17.9359 34.921 16.9221 35.7154 16.2812 36.3311C15.6401 36.9467 15.0105 37.4503 14.8819 37.4503C14.5332 37.4503 13.9286 37.9585 10.8795 40.8121C9.3553 42.2387 7.4434 43.7587 6.63088 44.1898C5.34857 44.8699 5.14193 45.1153 5.06577 46.0481C4.96775 47.2533 4.60285 48.0858 3.37486 49.9073C0.471885 54.2133 -0.771087 58.5155 0.491864 59.8884C0.908893 60.3417 1.28784 60.4617 1.86219 60.3226C3.34989 59.9627 5.46251 58.8027 7.02106 57.4909C7.87635 56.7705 8.70042 56.1812 8.85181 56.1812C9.34844 56.1812 14.4321 51.2535 17.4471 47.8494C20.248 44.6872 20.4306 44.5404 20.9713 45.0216C21.7039 45.6738 21.6889 46.2382 20.8733 48.7217C20.3985 50.1674 20.2955 50.8967 20.5171 51.2424C21.2275 52.3506 21.3839 52.163 24.5869 46.3552C25.1921 45.2574 25.8564 44.152 26.063 43.8987C26.2697 43.6453 26.9036 42.609 27.4721 41.5957C28.8976 39.0541 29.2282 38.7366 30.9818 38.2241C33.1276 37.5974 35.2758 36.4954 35.2758 36.0219C35.2758 35.603 34.1389 35.6908 32.3419 36.2485C31.844 36.4029 31.1726 36.5291 30.8498 36.5291C30.2798 36.5291 30.2792 36.5046 30.8308 35.6847C31.1432 35.2201 31.5624 34.5639 31.7625 34.2261C31.9626 33.8884 32.5738 32.852 33.1213 31.9232C33.6685 30.9943 34.7283 29.3715 35.4765 28.3167C36.2244 27.2619 36.8365 26.3208 36.8365 26.2253C36.8365 25.5414 41.3015 19.5175 42.7342 18.268C45.1337 16.1757 52.0109 9.33828 53.5364 7.52875C54.2231 6.71411 54.9302 5.89332 55.1075 5.70479C55.8226 4.94449 56.7294 3.47888 56.8986 2.80948C56.9972 2.41889 56.8761 1.62452 56.6295 1.04386C56.2477 0.144466 56.032 -0.00968013 55.1711 0.000452992C54.6152 0.00720841 53.7109 0.204958 53.1609 0.440169ZM55.0141 2.45758C54.8715 3.75462 53.9029 4.73815 52.6655 4.84224C51.71 4.92239 51.1454 5.34921 48.838 7.73448C47.3493 9.27318 45.4549 11.4472 44.628 12.5655C43.8011 13.6835 42.1315 15.467 40.9172 16.5288C38.7294 18.4415 38.0398 18.6497 39.432 16.9774C39.8294 16.4999 40.62 15.4185 41.1891 14.574C42.4783 12.6607 45.5604 8.94831 47.5544 6.90725C48.3844 6.0576 49.157 5.223 49.2712 5.0532C49.3852 4.88339 49.9704 4.3841 50.5719 3.94377C54.1301 1.33956 55.1755 0.989507 55.0141 2.45758ZM34.884 26.3027C33.5714 28.263 31.6642 31.3812 29.501 35.1034C28.0274 37.6386 28.0036 37.6653 26.7766 38.1664C24.7458 38.9955 24.9106 38.0905 27.3637 34.9404C28.1101 33.982 28.7206 33.1299 28.7206 33.0464C28.7206 32.6795 33.2771 26.1924 33.8545 25.7374C34.207 25.4595 34.8341 24.9405 35.2477 24.584C36.4863 23.5167 36.3648 24.0906 34.884 26.3027ZM135.319 26.8505C134.461 27.0596 132.775 27.3992 131.573 27.6049C130.372 27.8107 128.756 28.1647 127.984 28.3916C127.211 28.6188 125.806 28.9686 124.862 29.1688C123.918 29.3693 122.162 29.844 120.96 30.2239C119.759 30.6037 118.003 31.0913 117.059 31.3072C116.114 31.5231 114.78 31.9508 114.093 32.2579C112.768 32.8502 110.691 33.6071 109.028 34.1039C108.01 34.4079 102.988 36.8776 101.282 37.9128C100.774 38.2211 100.002 38.8754 99.567 39.3667C98.9015 40.1181 98.471 40.2873 96.8635 40.4307C93.6474 40.7175 92.0876 39.8599 94.3569 39.0526C95.8012 38.5389 98.0175 37.0757 98.0175 36.636C98.0175 35.9715 97.1148 35.3506 96.3843 35.5121C94.9675 35.826 93.4629 36.6409 92.1888 37.785C91.3054 38.5782 90.3006 39.11 89.0673 39.4367C88.0668 39.7017 86.7568 40.0806 86.1559 40.2787C85.555 40.4767 84.361 40.7414 83.5026 40.867C78.827 41.5506 78.9971 41.545 78.7914 41.0178C78.5835 40.4853 80.0075 38.3715 80.574 38.3715C80.7482 38.3715 81.3731 38.0098 81.9628 37.5673C83.0172 36.776 83.3481 35.8349 82.7085 35.4461C82.3477 35.2266 80.8347 36.0851 80.4436 36.7309C80.3062 36.9578 80.0384 37.1433 79.8483 37.1433C79.6579 37.1433 78.7333 37.727 77.7934 38.4403C76.8535 39.1536 75.8322 39.8789 75.5241 40.0524C75.216 40.2256 74.0055 40.9149 72.8343 41.584C69.71 43.369 68.6743 43.8827 67.1498 44.4044C66.0158 44.7922 65.7348 44.8024 65.516 44.4624C65.3706 44.2368 65.2495 43.9632 65.2466 43.8545C65.2373 43.4629 69.5125 39.6265 70.2729 39.344C70.6621 39.1994 70.6175 37.7574 70.2238 37.7574C69.4172 37.7574 67.1286 39.2147 65.6446 40.6736C64.75 41.553 63.6965 42.5031 63.3035 42.785C62.0406 43.6905 58.5567 45.8891 57.7133 46.3125C56.7253 46.8084 55.7626 46.6755 55.6353 46.0251C55.5407 45.5415 55.9031 45.1186 58.4886 42.6974C59.9473 41.3316 60.3166 40.3386 59.4835 40.0238C59.053 39.8614 57.1261 40.7688 57.1261 41.1342C57.1261 41.5119 53.9925 44.5128 53.5979 44.5128C53.3663 44.5128 52.8472 44.8582 52.4439 45.2805C52.0406 45.7027 51.5006 46.0481 51.2434 46.0481C50.9865 46.0481 50.5545 46.2314 50.2835 46.4556C49.7588 46.8895 47.561 47.5834 46.711 47.5834C45.9874 47.5834 46.0371 45.5421 46.789 44.3593C47.1115 43.8526 48.381 42.2761 49.6105 40.8563C51.0074 39.2427 51.7356 38.1661 51.5521 37.9855C51.2206 37.6594 50.149 37.9195 49.5584 38.4698C49.3427 38.6706 48.3938 39.4536 47.4495 40.2099C46.5053 40.9659 45.1006 42.173 44.328 42.8915C43.5555 43.6103 42.7651 44.2002 42.5713 44.2021C42.3777 44.2042 42.0319 44.4281 41.8025 44.6998C41.2774 45.3225 37.8363 47.5834 37.414 47.5834C36.7163 47.5834 37.6194 45.4782 39.2151 43.3843C40.3962 41.8346 40.8944 40.9008 40.8944 40.2369C40.8944 39.5666 40.7458 39.2927 40.3825 39.2927C39.7738 39.2927 39.6209 39.4766 36.9436 43.4381C35.802 45.1269 33.946 47.3725 32.8192 48.4279C30.1662 50.9129 29.801 50.947 30.7827 48.6189C31.9888 45.7595 34.472 42.2577 37.3965 39.2927C38.3126 38.3638 39.2737 37.2114 39.5325 36.7318C40.0379 35.7952 39.9143 34.9929 39.2653 34.9953C38.8982 34.9966 37.4271 36.2561 36.6804 37.2087C36.5087 37.4279 35.6366 38.4474 34.7423 39.4748C30.0176 44.9028 27.2099 51.1356 28.8764 52.4962C29.6633 53.1388 30.6107 52.6092 34.1395 49.5539C34.5825 49.1704 34.884 49.1246 35.4097 49.3601C35.7889 49.5299 36.5081 49.592 37.0082 49.498C38.4022 49.2358 41.2203 47.6387 42.6231 46.3156C43.3164 45.6618 43.9485 45.1275 44.0278 45.1282C44.107 45.1291 44.1991 45.6419 44.2325 46.2677C44.2656 46.8935 44.4566 47.7066 44.6567 48.0747C45.345 49.3395 47.4255 49.8195 48.5605 48.9751C48.8935 48.727 49.3961 48.5197 49.677 48.5145C50.2776 48.5028 51.298 48.0007 52.6337 47.0593L53.5951 46.3816L54.274 47.2853C55.0091 48.2636 56.2774 48.7469 56.8961 48.2848C57.1083 48.126 57.928 47.7618 58.7171 47.4754C59.5066 47.1889 60.6178 46.5453 61.1868 46.0457C62.712 44.7063 63.282 44.6227 64.3071 45.5891C65.1558 46.3887 65.2445 46.4055 66.843 46.0684C67.7538 45.8762 69.1185 45.3784 69.8755 44.9623C70.6321 44.5463 71.3744 44.2057 71.5246 44.2057C71.6747 44.2057 72.8821 43.5124 74.2078 42.6649C76.4359 41.2404 76.6344 41.1695 76.8439 41.7259C77.2291 42.7506 78.5875 43.4031 80.1683 43.3226C80.9605 43.2824 81.754 43.1464 81.9316 43.0208C82.1089 42.8949 82.7457 42.7509 83.3465 42.7005C83.9474 42.6502 84.72 42.4604 85.0634 42.2789C85.4067 42.0971 86.1793 41.8481 86.7802 41.7253C87.3811 41.6021 88.6452 41.2088 89.5895 40.8514L91.3063 40.201L91.7452 40.8376C92.5949 42.0692 94.8829 42.5012 97.4903 41.9224C98.0662 41.7947 98.142 41.9046 98.4557 43.3232C98.7938 44.8509 100.498 46.2941 102.951 47.1296C104.205 47.5567 105.331 47.8454 105.453 47.7711C105.575 47.6967 106.339 47.7579 107.15 47.9068C107.961 48.056 111.611 48.2498 115.261 48.3379C123.008 48.5243 127.078 48.7801 127.515 49.1074C127.687 49.2361 128.179 49.4234 128.608 49.5238C129.037 49.6242 129.651 49.895 129.971 50.1256C130.506 50.5107 130.364 50.6354 128.255 51.6367C126.99 52.237 124.831 53.0179 123.458 53.3719C122.084 53.726 119.696 54.3481 118.151 54.7537C116.606 55.1596 113.656 55.8726 111.596 56.3382C109.536 56.8037 107.639 57.256 107.382 57.3435C106.56 57.6223 106.32 57.6788 104.729 57.9684C103.87 58.1247 102.536 58.4004 101.763 58.5813C99.6797 59.0689 97.3976 59.5138 95.9885 59.707C95.3018 59.8012 94.3185 60.0106 93.8035 60.1722C93.2885 60.3337 92.3754 60.5376 91.7745 60.6257C91.1737 60.7135 89.2774 61.0688 87.5605 61.4152C85.8437 61.7618 83.807 62.1669 83.0344 62.3155C82.2618 62.4644 81.0679 62.7205 80.3811 62.8851C79.6944 63.0494 78.2897 63.26 77.2597 63.3524C74.3426 63.615 71.1793 64.1397 70.5647 64.4634C70.2576 64.6252 69.9473 64.6995 69.8755 64.6286C69.7047 64.4609 65.7146 64.9888 64.3055 65.3652C62.6087 65.8188 57.3733 66.6214 56.1119 66.6214C55.4883 66.6214 54.9014 66.7433 54.8078 66.8923C54.7141 67.0412 53.7577 67.2558 52.6824 67.3688C49.0103 67.7554 48.5405 67.8184 46.8252 68.1515C45.881 68.3348 44.7573 68.551 44.328 68.6321C43.8988 68.7128 42.4942 68.9014 41.2066 69.0509C39.919 69.2005 38.4441 69.4655 37.929 69.6396C37.414 69.8137 36.0795 70.102 34.9636 70.2807C33.0863 70.581 30.8389 71.0186 27.0575 71.8197C26.2288 71.9954 24.8241 72.3623 23.936 72.635C23.0483 72.908 21.4788 73.332 20.4487 73.5774C19.4186 73.8227 18.1544 74.1255 17.6394 74.2501C16.9152 74.4255 16.703 74.6478 16.703 75.2318C16.703 75.9408 16.8078 75.9878 18.4198 75.9998C19.364 76.0069 21.1901 75.837 22.4777 75.6224C23.7653 75.4078 26.1532 75.0169 27.7842 74.7537C32.2329 74.0358 32.6562 73.9557 44.328 71.626C47.3325 71.0263 50.4227 70.4134 51.1953 70.2641C51.9679 70.1146 53.0423 69.8496 53.5829 69.6752C54.1239 69.5005 55.2476 69.2388 56.0801 69.0933C56.9129 68.9478 58.6478 68.5971 59.9354 68.314C61.2231 68.0305 62.9087 67.6863 63.6812 67.5488C64.4538 67.4112 67.1227 66.872 69.612 66.3503C75.7201 65.0704 76.8735 64.8527 79.6008 64.4668C80.8884 64.2844 82.6442 63.9908 83.5026 63.8143C84.361 63.6377 86.6085 63.2886 88.497 63.0383C90.3855 62.788 92.7032 62.4739 93.6474 62.3403C94.5917 62.2068 96.7689 61.9341 98.4857 61.7348C100.203 61.5352 102.661 61.2254 103.948 61.0458C106.062 60.751 108.153 60.5247 113.313 60.0309C114.257 59.9406 115.901 59.7254 116.966 59.5528C118.032 59.3799 120.209 59.107 121.805 58.9464C123.4 58.7855 125.128 58.5822 125.643 58.4944C126.158 58.4068 127.913 58.1977 129.544 58.0298C131.175 57.8621 133.915 57.5808 135.631 57.4052C137.348 57.2293 139.947 56.9406 141.406 56.7637C143.97 56.453 147.084 56.1782 154.984 55.5653C157.045 55.4053 159.152 55.2094 159.667 55.1299C160.182 55.05 162.289 54.8993 164.349 54.7945C166.409 54.6898 168.376 54.4826 168.719 54.3339C169.062 54.185 169.624 53.9928 169.968 53.9062C170.311 53.8199 167.885 53.8061 164.577 53.8761C161.269 53.9458 158.438 54.0785 158.286 54.1709C158.134 54.2633 156.346 54.4058 154.312 54.4878C152.278 54.5698 150.087 54.7202 149.443 54.8222C147.478 55.1326 146.698 55.2042 142.811 55.4296C140.751 55.549 138.895 55.779 138.689 55.9405C138.481 56.102 138.182 56.1551 138.023 56.0584C137.696 55.8597 131.91 56.3296 129.076 56.7852C128.046 56.9511 125.728 57.2225 123.926 57.3886C122.123 57.5547 120.157 57.7605 119.556 57.8458C118.955 57.9309 117.691 58.0844 116.746 58.1864C115.802 58.2883 114.538 58.4885 113.937 58.631C113.336 58.7735 111.651 58.9709 110.191 59.0698C108.732 59.1684 106.8 59.3673 105.899 59.5117C104.998 59.6563 104.26 59.6689 104.26 59.5402C104.26 59.4113 104.858 59.2163 105.587 59.107C106.821 58.9218 107.816 58.6817 111.44 57.6954C112.212 57.485 113.406 57.2022 114.093 57.0668C115.452 56.7988 118.021 56.1769 120.96 55.4047C121.99 55.1342 123.395 54.778 124.082 54.6134C126.165 54.1135 130.474 52.4369 131.282 51.8117C132.101 51.1776 132.251 50.1763 131.641 49.4056C130.831 48.3806 128.704 47.6587 125.932 47.4677C125.233 47.4195 124.517 47.2923 124.341 47.1852C124.164 47.078 121.155 46.9684 117.652 46.9414C108.311 46.8695 102.596 45.902 100.742 44.0786C100.441 43.782 100.203 43.0834 100.203 42.4951C100.203 41.6181 100.316 41.4422 100.883 41.4422C101.257 41.4422 101.994 41.312 102.521 41.1526C103.049 40.9932 104.463 40.6407 105.665 40.3687C109.878 39.4158 114.726 38.1203 115.498 37.7414C115.755 37.6149 116.809 37.2621 117.839 36.9572C118.869 36.6523 119.845 36.2933 120.008 36.1591C120.171 36.0249 120.667 35.915 121.109 35.915C121.552 35.915 122.191 35.7323 122.53 35.5091C122.868 35.2858 123.637 34.9207 124.238 34.6975C124.839 34.4746 125.892 34.0505 126.579 33.7554C127.942 33.1692 129.106 32.7317 132.666 31.4672C133.954 31.0096 135.741 30.3071 136.637 29.9054C137.534 29.5041 138.612 29.0905 139.033 28.9864C140.19 28.7008 140.989 27.7096 140.579 27.0688C140.161 26.4154 137.549 26.307 135.319 26.8505ZM135.311 28.9459C134.972 29.166 133.641 29.7264 132.354 30.1907C131.066 30.6553 129.308 31.3041 128.446 31.6327C127.584 31.9612 126.698 32.2302 126.477 32.2302C126.256 32.2302 125.486 32.5508 124.766 32.9423C123.425 33.6722 119.3 35.1372 115.966 36.0679C114.936 36.3553 113.812 36.7048 113.469 36.8442C111.769 37.5351 105.579 39.1177 103.184 39.4739C102.103 39.6345 101.999 39.5995 102.346 39.1883C102.898 38.5346 107.919 36.1886 111.284 35.0128C112.829 34.473 114.374 33.9062 114.717 33.7533C115.978 33.1923 118.625 32.241 119.314 32.101C121.258 31.7073 126.655 30.3326 127.203 30.0921C127.547 29.9414 128.389 29.7249 129.076 29.611C130.48 29.3785 131.322 29.2228 133.134 28.8617C133.821 28.7248 134.73 28.5977 135.155 28.5792C135.894 28.547 135.9 28.5623 135.311 28.9459ZM27.9615 31.6683C25.0922 35.8628 22.5464 39.3382 21.9474 39.878C20.917 40.8072 17.8685 42.0799 16.8047 42.0256C16.2338 41.9964 14.7174 42.0812 13.4348 42.2141L11.103 42.4561L13.0355 40.696C14.0987 39.7278 15.7097 38.3632 16.6159 37.6631C17.5223 36.9633 18.3339 36.3182 18.4198 36.2297C18.7048 35.9353 21.3774 34.1779 21.8534 33.9716C22.438 33.7186 25.2555 31.8105 25.9894 31.1709C26.29 30.9092 26.6411 30.6909 26.7697 30.6863C26.8983 30.6817 27.5548 30.2678 28.2281 29.7667C28.9011 29.2655 29.5104 28.913 29.5816 28.983C29.6527 29.053 28.9239 30.2613 27.9615 31.6683ZM26.0477 40.5977C25.9279 40.9779 25.2418 42.2915 24.5229 43.5173L23.2159 45.7457L22.3787 44.4876C21.918 43.7955 21.5412 43.1276 21.5412 43.0036C21.5412 42.5872 22.9312 41.5183 24.5067 40.723C26.4201 39.7573 26.3099 39.7662 26.0477 40.5977ZM13.4254 43.8987C13.4254 44.0676 13.2765 44.2057 13.0948 44.2057C12.9132 44.2057 12.851 44.0676 12.9572 43.8987C13.0633 43.7298 13.2119 43.5916 13.2877 43.5916C13.3636 43.5916 13.4254 43.7298 13.4254 43.8987ZM18.7897 43.8987C18.9648 43.8987 18.22 44.9003 17.1347 46.1249C14.5613 49.0273 8.10359 55.2601 7.66971 55.2601C7.48398 55.2601 6.9577 55.6018 6.49977 56.0194C5.50902 56.9231 2.36943 58.6378 1.70549 58.6378C1.07121 58.6378 1.26568 56.9944 2.10973 55.2232C2.46214 54.4835 3.0006 53.3255 3.3065 52.65C3.61209 51.9745 4.22297 50.9375 4.66403 50.3458C5.10478 49.7541 5.62045 48.9941 5.80962 48.6569C5.99878 48.3198 6.49041 48.0026 6.90213 47.9519C8.6461 47.737 11.9112 46.5557 14.6756 45.1389C16.3056 44.3034 17.8264 43.6828 18.0552 43.7593C18.2837 43.836 18.6142 43.8987 18.7897 43.8987ZM12.3173 44.4499C11.8078 44.8687 8.43946 45.8519 8.22751 45.6431C7.92254 45.3431 10.6426 44.2202 11.693 44.2125C12.1996 44.2088 12.4805 44.3157 12.3173 44.4499ZM44.4841 70.3437C43.9691 70.504 42.3537 70.835 40.8944 71.0791C39.4351 71.3232 37.0672 71.7393 35.6322 72.0037C34.1973 72.2683 32.8629 72.4296 32.6668 72.362C32.4708 72.2944 32.9425 72.1424 33.715 72.0242C35.6709 71.7245 39.5013 70.9461 41.3626 70.4699C42.2211 70.2503 43.4852 70.0664 44.172 70.0612C45.4059 70.0519 45.4096 70.0553 44.4841 70.3437Z" fill="#A9A9A9"/>
</svg>
