<svg width="26" height="23" viewBox="0 0 26 23" fill="none" xmlns="http://www.w3.org/2000/svg">
<path d="M25 1.41146C23.9553 2.1794 22.7987 2.76675 21.5745 3.1509C20.9175 2.36361 20.0444 1.80561 19.0731 1.55235C18.1019 1.29909 17.0795 1.36279 16.1441 1.73485C15.2087 2.10691 14.4056 2.76936 13.8433 3.63262C13.2809 4.49588 12.9866 5.51829 13 6.56157V7.69846C11.0829 7.75027 9.18321 7.30716 7.47019 6.4086C5.75717 5.51004 4.28398 4.18392 3.18182 2.54835C3.18182 2.54835 -1.18182 12.7804 8.63636 17.3279C6.38967 18.9173 3.71326 19.7142 1 19.6017C10.8182 25.2862 22.8182 19.6017 22.8182 6.52746C22.8172 6.21079 22.788 5.89489 22.7309 5.58384C23.8443 4.43956 24.63 2.99482 25 1.41146V1.41146Z" stroke="#5DA0EF" stroke-width="1.5" stroke-linecap="round" stroke-linejoin="round"/>
</svg>
