<svg width="26" height="23" viewBox="0 0 26 23" fill="none" xmlns="http://www.w3.org/2000/svg">
<path d="M25 1.41133C23.9553 2.17928 22.7987 2.76663 21.5745 3.15078C20.9175 2.36349 20.0444 1.80549 19.0731 1.55223C18.1019 1.29896 17.0795 1.36267 16.1441 1.73473C15.2087 2.10678 14.4056 2.76924 13.8433 3.6325C13.2809 4.49575 12.9866 5.51816 13 6.56145V7.69834C11.0829 7.75014 9.18321 7.30704 7.47019 6.40847C5.75717 5.50991 4.28398 4.1838 3.18182 2.54822C3.18182 2.54822 -1.18182 12.7802 8.63636 17.3278C6.38967 18.9171 3.71326 19.7141 1 19.6016C10.8182 25.286 22.8182 19.6016 22.8182 6.52734C22.8172 6.21066 22.788 5.89477 22.7309 5.58372C23.8443 4.43943 24.63 2.9947 25 1.41133V1.41133Z" stroke="#E6FCFF" stroke-width="1.5" stroke-linecap="round" stroke-linejoin="round"/>
</svg>
