<svg width="29" height="29" viewBox="0 0 29 29" fill="none" xmlns="http://www.w3.org/2000/svg">
<path d="M27.2352 7.75754C27.0917 7.18408 26.7994 6.65865 26.3878 6.23432C25.9762 5.81 25.4599 5.50181 24.8911 5.34087C22.8127 4.83337 14.4994 4.83337 14.4994 4.83337C14.4994 4.83337 6.18606 4.83337 4.10772 5.38921C3.5389 5.55014 3.02261 5.85833 2.61102 6.28266C2.19942 6.70698 1.90709 7.23241 1.76356 7.80587C1.38319 9.91509 1.19713 12.0547 1.20772 14.198C1.19416 16.3573 1.38023 18.5133 1.76356 20.6384C1.9218 21.194 2.22068 21.6995 2.63131 22.1059C3.04195 22.5123 3.55046 22.8059 4.10772 22.9584C6.18606 23.5142 14.4994 23.5142 14.4994 23.5142C14.4994 23.5142 22.8127 23.5142 24.8911 22.9584C25.4599 22.7974 25.9762 22.4892 26.3878 22.0649C26.7994 21.6406 27.0917 21.1152 27.2352 20.5417C27.6127 18.4484 27.7987 16.325 27.7911 14.198C27.8046 12.0386 27.6185 9.88263 27.2352 7.75754V7.75754Z" stroke="#E6FCFF" stroke-width="1.5" stroke-linecap="round" stroke-linejoin="round"/>
<path d="M11.7812 18.1492L18.7292 14.198L11.7812 10.2467V18.1492Z" stroke="#E6FCFF" stroke-width="1.5" stroke-linecap="round" stroke-linejoin="round"/>
</svg>
